<?xml version="1.0" encoding="utf-8"?>
<!-- Generator: Adobe Illustrator 24.2.1, SVG Export Plug-In . SVG Version: 6.00 Build 0)  -->
<svg version="1.1" xmlns="http://www.w3.org/2000/svg" xmlns:xlink="http://www.w3.org/1999/xlink" x="0px" y="0px"
	 viewBox="0 0 1001.9 300" style="enable-background:new 0 0 1001.9 300;" xml:space="preserve">
<style type="text/css">
	.st0{fill:#222222;}
	.st1{fill:#00C661;}
	.st2{fill:none;}
</style>
<g id="ARTWORK">
	<g>
		<path class="st0" d="M918.75,145.11h-35.46c-22.83,0-35.05,17.12-35.05,45.65v103.13h-67.26V145.11h-28.53
			c-22.83,0-35.05,17.12-35.05,45.65v103.13h-67.26V90.08h67.26v30.98c11.01-24.05,26.09-30.98,48.51-30.98h82.34v30.98
			c11.01-24.05,26.09-30.98,48.51-30.98h22.01V145.11z M635.46,207.88H495.24c3.67,22.83,17.93,35.87,41.98,35.87
			c17.93,0,30.57-7.34,34.65-20.38l59.51,16.71c-14.67,35.46-50.95,57.07-94.16,57.07c-72.96,0-106.39-56.66-106.39-105.16
			c0-47.69,29.35-104.76,102.31-104.76c77.45,0,103.13,57.88,103.13,100.68C636.28,197.28,635.87,203.4,635.46,207.88z
			 M570.24,168.34c-1.63-17.53-14.27-33.83-37.09-33.83c-21.2,0-33.83,9.37-37.91,33.83H570.24z M313.45,293.89h59.1l73.78-203.8
			h-67.66L342.8,208.7L306.11,90.08h-67.26L313.45,293.89z M37.91,293.89h66.85V145.11h63.59v148.78h66.44V90.08H104.76V77.45
			c0-13.86,9.78-22.42,25.27-22.42h38.32V0h-49.32C70.52,0,37.91,29.76,37.91,73.37v16.71H0v55.03h37.91V293.89z"/>
		<circle class="st1" cx="960.33" cy="258.42" r="41.58"/>
	</g>
</g>
<g id="CLEARSPACE">
	<rect x="-150" y="-150" class="st2" width="1301.9" height="600"/>
</g>
</svg>
