<?xml version="1.0" encoding="utf-8"?>
<!-- Generator: Adobe Illustrator 24.2.1, SVG Export Plug-In . SVG Version: 6.00 Build 0)  -->
<svg version="1.1" id="Layer_1" xmlns="http://www.w3.org/2000/svg" xmlns:xlink="http://www.w3.org/1999/xlink" x="0px" y="0px"
	 viewBox="0 0 1001.9 300" style="enable-background:new 0 0 1001.9 300;" xml:space="preserve">
<style type="text/css">
	.st0{fill:#FFFFFF;}
	.st1{fill:none;}
</style>
<g id="ARTWORK">
	<g>
		<circle class="st0" cx="960.3" cy="258.4" r="41.6"/>
		<path class="st0" d="M918.8,145.1h-35.5c-22.8,0-35,17.1-35,45.7v103.1H781V145.1h-28.5c-22.8,0-35,17.1-35,45.7v103.1h-67.3V90.1
			h67.3v31c11-24.1,26.1-31,48.5-31h82.3v31c11-24.1,26.1-31,48.5-31h22L918.8,145.1L918.8,145.1z M635.5,207.9H495.2
			c3.7,22.8,17.9,35.9,42,35.9c17.9,0,30.6-7.3,34.7-20.4l59.5,16.7c-14.7,35.5-51,57.1-94.2,57.1c-73,0-106.4-56.7-106.4-105.2
			c0-47.7,29.4-104.8,102.3-104.8c77.5,0,103.1,57.9,103.1,100.7C636.3,197.3,635.9,203.4,635.5,207.9z M570.2,168.3
			c-1.6-17.5-14.3-33.8-37.1-33.8c-21.2,0-33.8,9.4-37.9,33.8H570.2z M313.5,293.9h59.1l73.8-203.8h-67.7l-35.9,118.6L306.1,90.1
			h-67.3L313.5,293.9z M37.9,293.9h66.8V145.1h63.6v148.8h66.4V90.1h-130V77.4c0-13.9,9.8-22.4,25.3-22.4h38.3V0H119
			C70.5,0,37.9,29.8,37.9,73.4v16.7H0v55h37.9V293.9z"/>
	</g>
</g>
<g id="CLEARSPACE">
	<rect x="-150" y="-150" class="st1" width="1301.9" height="600"/>
</g>
</svg>
